
<svg version='1.1' id='Layer_1' xmlns='http://www.w3.org/2000/svg' xmlns:xlink='http://www.w3.org/1999/xlink' x='0px' y='0px' width='128px' height='128px' viewBox='0 0 128 128' style='enable-background:new 0 0 24 24;' xml:space='preserve'> 
  <path d="M94.35,112.73c-3.12,3.2-6.99,4.57-11.13,5.34-3.83.72-7.72.62-11.6.72-3.43.08-6.86.36-10.28.57-2.56.16-5.05.08-7.11-1.8-.19-.18-.57-.21-.87-.21-1.75-.04-3.15-.98-3.56-2.43-.43-1.52.18-3.23,1.65-4.08.79-.46,1.73-.71,2.64-.9.7-.14,1.44-.03,2.17-.03l.26-.27c-.21-.09-.46-.15-.64-.29-3.28-2.55-5.12-5.82-5.15-10.05,0-.81-.13-1.62-.34-2.43-.02.39-.04.77-.08,1.35-1.04-.52-2.02-1.01-3.05-1.52-.23,1.54-.43,3.06-.7,4.57-.83,4.59-1.9,9.11-3.58,13.48-.66,1.71-1.82,2.81-3.57,3.36-2.64.84-5.3,1.39-8.07.74-1.14-.27-2.12-.75-2.82-1.74-.15-.22-.5-.33-.78-.42-1.66-.52-2.33-1.79-1.82-3.45.5-1.63,2.01-2.84,3.81-2.88.78-.02,1.2-.32,1.32-1.02.21-1.17.51-2.36.48-3.53-.15-5.09-1.25-10.04-2.37-14.99-.99-4.35-1.76-8.75-2.66-13.12-.07-.36-.3-.74-.56-1.01-.96-.94-1.96-1.84-2.95-2.75.06-.08.11-.16.17-.23.51.26,1.01.52,1.52.78.08-.06.17-.12.25-.18-1.32-2.14-2.64-4.27-4-6.48.53.31,1.05.63,1.57.94l.23-.17c-.66-1.12-1.24-2.29-1.99-3.35-.63-.89-1.32-.8-1.96.08-.1.14-.19.3-.43.71.19-2.97.36-5.64.54-8.49-.74.27-1.36.5-2.06.76l.48-3.15c-1.08.49-2.01.92-2.78,1.27,1.02-1.88,2.18-3.8,3.13-5.81,1.58-3.36,2.15-6.95,2.15-10.65,0-.65-.21-1.01-.83-1.27-2.84-1.2-4.94-3.19-6.28-5.98-.12-.24-.33-.45-.51-.66-.79-.91-1.66-1.77-2.37-2.73-.32-.43-.51-.55-1.03-.41-2.84.77-5.39,2.06-7.56,4.06,2.1-2.66,5.13-3.79,8.23-4.86-2.55-.27-4.92.3-7.26,1.03,2.23-1.19,4.7-1.41,7.36-1.61-1.54-.8-4.96-.72-9.56-.04.75-.19,1.49-.42,2.24-.55.77-.14,1.56-.2,2.35-.26.82-.06,1.64-.09,2.46-.09.77,0,1.53.08,2.34-.03-1.61-1.57-3.72-2.05-5.71-2.77l.09-.25c1.93.69,3.86,1.37,5.93,2.11.13-.38.45-.92.47-1.47.08-3.49.87-6.69,3.64-9.33-1.37-1.76-2.69-3.46-4.07-5.23,1.75,1.39,3.04,3.1,4.31,4.82.93-.67,1.84-1.29,2.7-1.97.15-.12.19-.49.16-.74-.31-3.14-.55-6.29-.07-9.43.08-.52.22-1.05.44-1.53.42-.91,1.06-1.05,1.8-.39.51.46.97,1,1.36,1.56,1.38,1.96,2.72,3.95,4.09,5.91.79,1.14,1.69,2.02,3.26,2.1,1.07.06,2.15.48,3.17.87.7.27,1.11.1,1.51-.46,1.42-1.97,2.85-3.93,4.31-5.87.41-.54.94-1.02,1.48-1.45.69-.55,1.5-.55,1.99.2.84,1.27,1.82,2.56,2.24,3.99.74,2.49,1.09,5.09,1.62,7.64.07.36.14.75.33,1.05,2.2,3.36,2.87,7.08,2.61,11.02-.15,2.23-.4,4.46-.47,6.7-.07,2.18.8,3.92,2.65,5.24,1,.72,2.05,1.65,2.56,2.72,1.97,4.18,5.4,5.97,9.71,6.94,14.24,3.19,24.34,11.78,31.02,24.54,2.58,4.94,3.88,10.31,4.25,15.86.21,3.11.16,6.24.22,9.36.02.76-.05,1.53.05,2.27.36,2.56,2.33,4.36,5.39,4.71,1.61.19,3.28.16,4.9-.04,3.85-.47,6.33-2.78,7.7-6.3,1.65-4.24,1.39-8.48-.5-12.57-1.12-2.44-3.04-4.11-5.72-4.67-1.88-.4-3.14-1.55-4.18-3.01-1.32-1.85-.61-4.12,1.62-4.74,1.48-.41,3.13-.53,4.66-.39,6.82.61,11.77,4.11,14.96,10.11,1.76,3.32,2.19,6.94,2.12,10.64-.09,4.82-1.08,9.39-3.81,13.44-3.37,5-8.22,7.74-14.03,8.94-2.99.61-6,.77-9,.01-2.64-.67-5.02-1.8-6.81-4.02h0ZM21.61,24.59c1.81-.31,3.24-1.12,4.83-2.41-1.16-.36-2.06-.67-2.97-.92-.45-.12-.74.05-.89.56-.27.9-.61,1.77-.96,2.78h0ZM11.93,23.14c.42-.86.85-1.71,1.23-2.59.09-.2.01-.53-.11-.74-.06-.12-.4-.19-.55-.13-1.28.52-1.59,2.4-.57,3.46h0ZM19.93,24.55c.41-.97.79-1.9,1.23-2.93-1.27.53-1.86,1.45-2.26,2.62.38.11.7.21,1.04.31ZM13.91,21.58c-.5.82-.87,1.44-1.27,2.09,1.12.17,1.4-.26,1.27-2.09Z" style="fill: #000; stroke-width: 0px;"/>
</svg>