
<svg version='1.1' id='Layer_1' xmlns='http://www.w3.org/2000/svg' xmlns:xlink='http://www.w3.org/1999/xlink' x='0px' y='0px' width='24px' height='24px' viewBox='0 0 24 24' style='enable-background:new 0 0 24 24;' xml:space='preserve'> 
  <path d="M10.11.02c-1.25.1-2.45.58-3.54,1.41-.25.19-.48.39-.83.72-.41.38-.61.55-.9.81-1.74,1.49-3.01,2.14-3.78,1.93-.14-.04-.21-.08-.45-.23-.11-.07-.22-.13-.26-.14-.21-.04-.38.1-.36.29.03.24.3.5.71.7.42.2.88.27,1.37.2.63-.09,1.28-.33,1.94-.71.59-.34,1.01-.64,2.19-1.58.62-.5,1.1-.86,1.36-1.03,1.16-.78,2.03-1.05,3.04-.93.98.11,1.83.47,2.65,1.1.25.2.68.6.89.84l.14.16-.19.03c-.28.05-.7.16-1.02.27-2.44.83-4.31,2.84-4.95,5.32-.12.46-.19.92-.23,1.45l-.02.34-.14.16c-.59.69-.91,1.51-.91,2.38,0,.77.23,1.49.69,2.12.14.19.45.52.64.68.39.31.93.59,1.36.69l.09.02.13.25c.38.74,1.02,1.79,1.49,2.45l.15.21h-.36c-.52.03-.87.09-1.31.27-.31.12-.63.32-.67.42-.04.1.08.21.18.18.03-.01.08-.05.13-.08.05-.03.16-.1.25-.15.49-.25,1.13-.38,1.77-.34h.24s.23.29.23.29c.21.25.22.27.18.29-.48.14-.65.2-.93.36-.22.11-.59.36-.81.53-.21.16-.59.55-.61.6-.03.1.08.21.17.18.02,0,.11-.08.2-.17.57-.59,1.33-1.04,2.01-1.21.23-.05.23-.05.39.11l.15.15-.12.06c-.56.28-.98.9-1.21,1.8-.03.1-.05.23-.06.29,0,.1,0,.11.04.15.06.06.12.06.18.02.03-.02.05-.09.09-.27.15-.66.41-1.17.76-1.49.13-.12.33-.25.46-.3l.08-.03.08.08c.27.25.65.55.95.75.87.57,1.63.71,2.41.45.53-.17,1.12-.56,1.74-1.11l.2-.18.1.03c.26.09.58.36.77.64.2.31.4.81.48,1.2.05.24.14.31.26.21.06-.05.06-.1.02-.3-.2-.92-.68-1.68-1.26-1.95-.06-.03-.12-.06-.12-.07,0,0,.07-.08.15-.15l.14-.14.17.04c.69.14,1.42.56,2.05,1.18.12.12.23.22.26.22.05.02.13-.04.15-.1.03-.08,0-.14-.22-.35-.61-.6-1.33-1.03-2.03-1.21l-.16-.04.21-.26c.12-.14.23-.27.25-.28.06-.03.83-.02,1.06.02.49.08.96.25,1.24.46.13.1.17.11.24.06.07-.05.09-.13.05-.19-.1-.13-.49-.35-.86-.47-.4-.13-.77-.19-1.24-.19h-.27l.16-.22c.42-.58.94-1.41,1.36-2.18.14-.25.26-.48.28-.51.02-.04.07-.07.22-.12,1.83-.69,2.78-2.67,2.17-4.5-.12-.38-.3-.71-.53-1.01l-.11-.14v-.35c-.09-2.41-1.25-4.57-3.19-5.98-.92-.66-2.03-1.13-3.16-1.33l-.26-.04-.02-.08c-.03-.11-.2-.43-.31-.58-.4-.57-1.02-1.15-1.72-1.61C13.16.33,11.58-.1,10.11.02Z" style="fill: #000; stroke-width: 0px;"/>
</svg>